<?xml version="1.0" standalone="no"?>
<!DOCTYPE svg PUBLIC "-//W3C//DTD SVG 20010904//EN"
 "http://www.w3.org/TR/2001/REC-SVG-20010904/DTD/svg10.dtd">
<svg version="1.0" xmlns="http://www.w3.org/2000/svg"
 width="300.000000pt" height="307.000000pt" viewBox="0 0 300.000000 307.000000"
 preserveAspectRatio="xMidYMid meet">
<metadata>
Created by potrace 1.10, written by Peter Selinger 2001-2011
</metadata>
<g transform="translate(0.000000,307.000000) scale(0.100000,-0.100000)"
fill="#000000" stroke="none">
<path d="M1345 2894 c-326 -48 -589 -177 -810 -399 -194 -193 -313 -414 -372
-687 -26 -120 -26 -431 1 -543 60 -258 173 -469 345 -648 210 -218 462 -351
766 -403 122 -22 394 -14 515 14 293 69 520 204 721 430 153 171 255 376 306
615 26 118 25 419 -1 536 -61 279 -178 494 -375 692 -193 192 -402 308 -671
371 -83 19 -350 33 -425 22z m280 -34 c100 -12 241 -43 289 -64 32 -14 63 -25
71 -26 11 0 163 -80 198 -104 21 -14 42 -26 47 -26 6 0 10 -4 10 -8 0 -4 13
-15 28 -25 123 -72 340 -330 406 -482 10 -22 24 -52 32 -67 21 -39 52 -141 70
-228 9 -41 18 -84 21 -95 14 -52 12 -323 -3 -395 -32 -158 -73 -298 -101 -343
-4 -7 -8 -17 -9 -24 -7 -46 -160 -255 -264 -363 -47 -49 -224 -188 -255 -201
-5 -2 -39 -20 -75 -38 -36 -19 -69 -36 -75 -37 -5 -2 -50 -17 -98 -34 -145
-50 -250 -65 -442 -64 -139 0 -187 4 -265 23 -136 32 -226 64 -325 116 -396
207 -654 578 -705 1014 -23 196 16 488 87 651 3 8 7 17 8 20 9 36 131 240 174
292 82 101 301 301 317 290 2 -1 14 7 26 18 12 11 27 20 34 20 7 0 14 3 16 8
6 14 214 109 258 117 10 2 53 13 96 24 144 38 277 48 429 31z"/>
<path d="M1504 2655 c-30 -45 10 -91 55 -63 31 19 34 39 10 65 -29 29 -45 29
-65 -2z m53 -21 c8 -22 -18 -37 -36 -20 -7 8 -10 19 -7 25 10 16 36 13 43 -5z"/>
<path d="M1182 2624 c-29 -20 -27 -55 2 -76 23 -17 25 -17 47 1 44 35 -3 108
-49 75z m44 -25 c10 -17 -23 -46 -37 -32 -7 7 -9 19 -6 27 7 18 33 21 43 5z"/>
<path d="M1783 2608 c-21 -28 -22 -36 -2 -59 15 -18 24 -21 36 -13 32 20 38
41 19 63 -22 24 -39 27 -53 9z m45 -35 c-2 -10 -10 -18 -18 -18 -8 0 -16 8
-18 18 -2 12 3 17 18 17 15 0 20 -5 18 -17z"/>
<path d="M974 2543 c3 -3 -4 -13 -16 -23 -26 -21 -19 -63 16 -85 27 -18 53 -9
75 27 17 28 -19 86 -54 86 -14 0 -24 -3 -21 -5z m50 -46 c16 -25 -16 -56 -38
-37 -19 15 -21 46 -3 53 18 8 29 3 41 -16z"/>
<path d="M1390 2521 c-91 -25 -135 -46 -202 -97 -84 -65 -158 -165 -158 -214
0 -38 74 -77 115 -60 11 5 17 9 13 9 -4 1 3 11 15 24 12 13 42 46 66 75 25 29
49 52 54 52 5 0 21 8 35 19 51 35 132 55 227 55 109 -1 119 -3 219 -47 44 -19
85 -33 93 -30 36 14 21 83 -26 121 -118 95 -303 133 -451 93z m242 -32 c71
-15 150 -54 198 -99 62 -58 52 -81 -16 -35 -86 58 -273 85 -386 55 -102 -28
-216 -108 -269 -189 -18 -28 -34 -51 -36 -51 -14 0 -63 33 -63 42 0 23 64 109
116 157 118 108 294 154 456 120z"/>
<path d="M1998 2501 c-21 -21 -22 -38 -5 -66 18 -29 36 -29 63 0 27 29 21 55
-16 75 -23 12 -21 13 -42 -9z m50 -34 c4 -20 -25 -34 -39 -20 -14 14 1 45 20
41 9 -2 17 -11 19 -21z"/>
<path d="M2111 2426 c-26 -28 -27 -58 -1 -81 42 -38 106 17 74 64 -27 37 -49
43 -73 17z m52 -28 c7 -21 -4 -38 -23 -38 -23 0 -34 16 -26 35 7 18 43 20 49
3z"/>
<path d="M797 2402 c-56 -12 -75 -73 -34 -109 43 -40 75 -35 102 17 15 28 14
32 -6 60 -25 32 -36 38 -62 32z m24 -32 c23 -13 25 -58 3 -67 -36 -13 -68 33
-44 62 15 18 16 18 41 5z"/>
<path d="M1437 2302 c-24 -26 -21 -49 8 -68 30 -20 51 -13 67 21 9 21 8 28 -7
45 -23 25 -47 26 -68 2z m53 -32 c0 -13 -7 -20 -20 -20 -13 0 -20 7 -20 20 0
13 7 20 20 20 13 0 20 -7 20 -20z"/>
<path d="M1644 2263 c-25 -36 -20 -68 17 -95 24 -18 79 -35 64 -20 -2 3 4 12
14 21 34 30 36 60 5 92 -36 38 -74 38 -100 2z m86 -23 c22 -40 -26 -80 -58
-48 -13 13 -16 50 -5 61 14 14 53 6 63 -13z"/>
<path d="M1995 2266 c-24 -21 -26 -28 -19 -57 4 -19 8 -36 9 -39 0 -3 9 -29
19 -58 14 -40 17 -72 13 -140 -5 -92 -5 -94 -27 -157 -15 -46 -30 -72 -82
-138 -21 -27 -38 -55 -38 -62 0 -23 66 -85 89 -85 31 0 106 81 144 155 79 152
86 328 20 485 -29 69 -45 91 -79 108 -18 9 -26 7 -49 -12z m69 -48 c109 -189
81 -464 -62 -619 l-47 -50 -28 36 -29 36 42 45 c115 125 150 352 80 512 -23
52 -25 68 -7 75 23 10 26 7 51 -35z"/>
<path d="M544 2189 c-13 -15 -16 -24 -8 -36 20 -32 41 -38 62 -19 22 19 23 36
3 60 -18 21 -34 20 -57 -5z m46 -25 c0 -14 -21 -19 -33 -7 -9 9 13 34 24 27 5
-3 9 -12 9 -20z"/>
<path d="M798 2188 c-29 -27 -28 -55 3 -79 27 -20 38 -17 63 17 18 26 18 26
-11 56 l-30 30 -25 -24z m47 -38 c0 -8 -10 -16 -22 -18 -22 -3 -32 16 -16 32
12 11 38 2 38 -14z"/>
<path d="M2219 2180 c-34 -34 -33 -62 5 -92 29 -24 61 -22 86 4 28 31 26 72
-6 97 -36 28 -50 26 -85 -9z m62 -10 c36 -20 13 -76 -28 -68 -22 4 -29 43 -13
64 15 17 16 17 41 4z"/>
<path d="M1280 2151 c-17 -25 -18 -30 -4 -49 17 -24 53 -29 72 -10 26 26 6 78
-34 84 -8 1 -23 -10 -34 -25z m57 -17 c3 -8 1 -20 -6 -27 -14 -14 -47 15 -37
32 10 16 36 13 43 -5z"/>
<path d="M2420 2173 c-15 -5 -40 -32 -40 -43 0 -14 38 -50 52 -50 16 0 48 31
48 47 0 17 -44 51 -60 46z m30 -42 c0 -11 -5 -23 -11 -27 -15 -9 -33 12 -26
30 9 23 37 20 37 -3z"/>
<path d="M1862 2125 c-39 -32 -44 -56 -21 -94 33 -54 108 -51 130 6 15 41 7
65 -30 90 -42 29 -43 28 -79 -2z m84 -30 c19 -30 11 -62 -21 -77 -49 -22 -96
42 -60 82 25 27 61 25 81 -5z"/>
<path d="M1383 2019 c-45 -17 -56 -73 -20 -107 30 -28 58 -28 85 1 49 52 1
131 -65 106z m55 -61 c2 -19 -2 -28 -18 -33 -24 -8 -50 10 -50 35 0 24 10 31
40 28 19 -2 26 -10 28 -30z"/>
<path d="M1019 1987 c-9 -6 -23 -25 -33 -40 -9 -15 -41 -46 -70 -69 -63 -48
-63 -62 -1 -101 24 -16 54 -45 66 -65 43 -72 66 -78 97 -24 21 39 56 74 105
105 34 22 34 41 1 64 -57 40 -84 66 -96 90 -19 38 -50 56 -69 40z m34 -46 c8
-39 60 -88 109 -103 22 -7 35 -14 27 -16 -77 -22 -139 -80 -139 -131 0 -35
-16 -24 -35 24 -18 48 -62 89 -108 100 -28 7 -28 8 25 34 44 22 57 34 78 78
27 56 34 59 43 14z"/>
<path d="M494 1948 c-90 -71 -91 -77 -29 -136 51 -47 61 -47 111 7 36 39 43
65 18 75 -8 3 -12 10 -9 16 3 5 1 10 -5 10 -6 0 -21 11 -34 25 l-23 25 -29
-22z m46 -48 c0 -4 12 -12 27 -19 l28 -13 -28 -14 c-15 -9 -32 -27 -38 -41
l-10 -27 -20 32 c-10 18 -29 36 -41 41 -22 8 -22 9 9 24 17 9 35 27 39 39 6
21 7 21 20 3 8 -10 14 -22 14 -25z"/>
<path d="M2463 1939 c-34 -12 -55 -52 -44 -80 11 -31 53 -53 84 -45 35 8 53
61 32 92 -21 32 -46 43 -72 33z m48 -45 c17 -21 0 -49 -32 -49 -24 0 -36 23
-25 51 7 19 40 18 57 -2z"/>
<path d="M2237 1922 c-28 -34 -28 -51 2 -66 25 -13 31 -13 50 0 25 18 27 46 5
65 -23 19 -41 19 -57 1z m43 -32 c0 -11 -6 -20 -14 -20 -18 0 -29 16 -21 30
11 18 35 11 35 -10z"/>
<path d="M1664 1875 c-33 -33 -22 -56 43 -89 4 -2 43 53 43 61 0 11 -43 53
-54 53 -4 0 -18 -11 -32 -25z m54 -28 c4 -20 -25 -34 -40 -19 -15 15 -1 44 19
40 10 -2 19 -11 21 -21z"/>
<path d="M1448 1788 c-7 -7 -36 -33 -64 -58 -119 -107 -362 -329 -403 -370
-14 -14 -39 -35 -54 -47 -15 -12 -69 -59 -119 -105 -147 -135 -151 -138 -159
-138 -5 0 -9 105 -9 233 0 214 -2 235 -18 250 -24 22 -100 22 -130 1 l-22 -15
0 -342 c0 -382 -4 -359 75 -429 60 -53 82 -62 101 -43 9 8 19 13 24 10 5 -3
10 -2 12 3 1 4 25 25 52 47 27 22 92 81 145 132 101 97 123 107 153 68 18 -24
23 -17 -139 -187 l-65 -68 20 -27 c24 -34 72 -77 95 -86 12 -4 32 7 67 38 49
44 83 53 98 28 4 -6 19 -12 33 -14 20 -3 41 10 90 51 70 59 187 169 227 213
33 36 54 34 91 -8 17 -19 33 -35 35 -35 3 0 36 -31 73 -68 37 -38 83 -77 101
-86 17 -9 32 -20 32 -25 0 -4 15 -16 34 -26 33 -18 34 -18 69 4 l35 21 33 -27
c19 -16 36 -31 37 -35 2 -5 10 -8 18 -8 9 0 12 -4 9 -10 -3 -5 -3 -10 2 -11 4
0 16 -2 26 -4 9 -2 17 1 17 5 0 5 9 12 21 15 31 10 80 84 70 104 -5 9 -55 63
-110 120 -56 57 -101 107 -101 111 0 8 39 50 46 50 15 0 46 -25 116 -93 42
-41 79 -73 82 -69 3 3 6 -2 6 -11 0 -9 6 -17 14 -17 8 0 16 -4 18 -9 5 -16
120 -101 129 -96 4 3 11 1 14 -5 8 -13 101 74 121 113 12 23 15 88 14 365 0
330 0 337 -21 355 -14 11 -38 17 -69 17 -80 0 -80 0 -80 -268 0 -127 -4 -233
-9 -236 -4 -3 -30 15 -56 40 -27 25 -57 49 -67 55 -10 5 -16 14 -13 20 4 5 2
8 -3 7 -5 -2 -38 24 -74 57 -77 72 -215 197 -244 222 -27 23 -237 218 -281
261 -19 17 -37 32 -41 32 -4 0 -15 9 -25 20 -19 23 -59 26 -79 8z m64 -30 c38
-37 334 -307 599 -546 l245 -222 -1 -54 c-1 -33 -9 -65 -20 -82 -16 -25 -16
-28 -1 -36 9 -5 16 -18 16 -28 0 -10 5 -22 10 -25 7 -4 10 127 10 384 l0 391
55 0 55 0 0 -343 0 -343 -60 -59 -59 -58 -126 119 c-70 65 -150 140 -179 165
l-52 47 -53 -47 -54 -48 79 -75 c43 -41 103 -97 132 -124 l53 -49 -50 -48
c-27 -26 -53 -47 -58 -47 -5 0 -35 27 -68 60 l-59 60 -38 -36 -37 -37 -171
164 c-94 90 -175 165 -180 167 -5 2 -87 -71 -182 -162 l-173 -165 -36 35 -35
34 -61 -63 -61 -63 -53 51 -54 51 115 109 c118 111 140 127 140 103 0 -18 110
-128 128 -128 7 0 -41 59 -109 130 -67 72 -125 130 -129 130 -3 0 -22 -16 -41
-36 -18 -20 -83 -81 -142 -136 l-108 -101 -45 43 -44 44 1 -59 c0 -51 2 -56
11 -37 11 21 46 30 62 15 3 -4 -8 -22 -26 -40 l-33 -34 -62 68 -63 68 0 338 0
337 55 0 56 0 -3 -280 c-2 -154 -2 -280 0 -280 4 0 252 224 432 390 63 58 178
162 255 232 77 69 151 137 164 152 14 14 26 26 27 26 2 0 14 -10 26 -22z"/>
<path d="M1511 1377 c-1 -221 3 -346 9 -342 12 7 13 606 1 655 -6 22 -9 -95
-10 -313z"/>
<path d="M1091 1179 c-52 -55 -89 -99 -82 -99 8 0 37 24 66 53 68 69 113 107
125 107 12 0 34 -40 26 -48 -3 -3 -6 -2 -6 2 0 4 -12 -7 -27 -26 -16 -18 -32
-35 -37 -37 -16 -7 -86 -83 -86 -94 0 -11 19 5 131 110 l66 62 -36 35 c-20 20
-39 35 -41 35 -3 -1 -48 -46 -99 -100z"/>
<path d="M1870 829 c-88 -71 -92 -76 -62 -60 12 6 22 9 22 6 0 -5 39 27 75 62
13 12 26 20 29 17 3 -2 4 -1 1 3 -3 3 0 12 6 20 21 25 3 13 -71 -48z"/>
<path d="M995 809 c26 -32 47 -49 59 -49 13 0 -33 49 -59 62 -20 11 -20 11 0
-13z"/>
<path d="M670 1680 c-25 -25 -25 -35 1 -54 40 -28 82 27 47 62 -17 17 -25 15
-48 -8z m40 -15 c13 -16 6 -35 -15 -35 -18 0 -28 17 -21 35 7 19 20 19 36 0z"/>
<path d="M2178 1693 c-27 -7 -33 -42 -11 -65 22 -22 49 -16 59 14 7 25 -23 57
-48 51z m32 -43 c0 -13 -7 -20 -20 -20 -13 0 -20 7 -20 20 0 13 7 20 20 20 13
0 20 -7 20 -20z"/>
<path d="M750 1535 c-21 -23 -26 -60 -10 -85 5 -8 10 -10 10 -5 0 6 5 2 11 -7
15 -26 54 -22 78 8 28 35 26 59 -5 87 -33 29 -58 29 -84 2z m68 -17 c17 -17
15 -43 -4 -59 -31 -26 -70 25 -44 56 15 18 32 19 48 3z"/>
<path d="M2142 1517 c-34 -39 -34 -56 -2 -88 23 -23 35 -29 52 -24 27 8 58 43
58 65 0 25 -33 59 -62 64 -18 3 -32 -2 -46 -17z m59 -17 c23 -13 25 -43 3 -61
-31 -26 -70 25 -44 56 15 18 16 18 41 5z"/>
<path d="M1451 809 c-58 -42 -221 -206 -221 -223 0 -19 77 -104 110 -121 25
-13 31 -12 73 15 25 15 49 34 54 42 26 41 39 40 95 -7 30 -25 62 -45 71 -45
19 0 93 63 108 92 5 10 6 25 2 32 -13 23 -190 202 -222 225 l-29 21 -41 -31z
m216 -160 l71 -67 -54 -53 -54 -54 -62 62 -61 61 31 33 c17 18 29 36 26 39 -3
3 -11 -3 -18 -13 -20 -26 -29 -20 -24 16 3 17 1 46 -3 62 -5 21 -7 8 -8 -45
l-1 -75 -71 -71 -71 -72 -57 55 -56 54 120 114 120 113 50 -46 c28 -26 82 -77
122 -113z"/>
</g>
</svg>
